<svg width="192" height="26" viewBox="0 0 192 26" fill="none" xmlns="http://www.w3.org/2000/svg">
<path d="M4.01775 0.968018H0V22.1246C0 23.7129 1.28587 25.0015 2.8744 25.0015H14.6234V21.2302H4.01775" fill="#25F56A"/>
<path d="M21.4755 19.7092V14.4361H30.9346V10.6648H21.4755V6.25876C21.4755 5.41891 22.1561 4.73933 22.9936 4.73933H32.9362V0.968018H21.9319C19.461 0.968018 17.4577 2.97308 17.4577 5.44616V20.5234C17.4577 22.9965 19.461 25.0015 21.9319 25.0015H33.9659V21.2302H22.9952C22.1561 21.2302 21.4771 20.5507 21.4771 19.7108L21.4755 19.7092Z" fill="#25F56A"/>
<path d="M52.1731 17.9077L41.0342 0.968018H36.9652V24.9999H41.0342V8.06027L52.1731 24.9999H56.2421V0.968018H52.1731V17.9077Z" fill="#25F56A"/>
<path d="M74.9569 3.12869C73.639 2.02118 72.0296 1.34641 70.1288 1.10119C69.5732 1.03387 68.9983 0.995403 68.4026 0.984183C67.8085 0.972964 67.4114 0.966553 67.2096 0.966553H59.5568V24.9985H67.2096C67.4098 24.9985 67.8101 24.9937 68.4106 24.9825C69.0111 24.9712 69.5828 24.9328 70.1272 24.8655C72.028 24.6202 73.6374 23.9455 74.9553 22.8379C76.2715 21.7304 77.2692 20.3216 77.9481 18.6066C78.6255 16.8933 78.965 15.018 78.965 12.9825C78.965 10.947 78.6255 9.07176 77.9481 7.3584C77.2708 5.64504 76.2731 4.2346 74.9553 3.12709L74.9569 3.12869ZM74.2058 16.5887C73.8663 17.7347 73.3411 18.7076 72.6301 19.509C71.9191 20.3104 70.9968 20.8169 69.863 21.0284C69.4627 21.107 69.0047 21.1566 68.4875 21.1791C67.9702 21.2015 67.5459 21.2127 67.2112 21.2127H63.6434V4.7555H67.2112C67.5443 4.7555 67.9702 4.76351 68.4875 4.78114C69.0047 4.79877 69.4627 4.85006 69.863 4.93982C70.9743 5.15138 71.8887 5.64664 72.6061 6.42559C73.3235 7.20453 73.8535 8.16619 74.1978 9.31217C74.5421 10.4582 74.7151 11.6827 74.7151 12.9841C74.7151 14.2856 74.5453 15.4428 74.2074 16.5887H74.2058Z" fill="#25F56A"/>
<path d="M86.9525 0.968018L79.383 24.9999H83.5176L85.1558 19.7925H94.6133L96.2722 24.9999H100.407L92.8374 0.968018H86.9525ZM86.3376 16.0389L89.8557 4.85954L93.4171 16.0389H86.3376Z" fill="#25F56A"/>
<path d="M118.717 13.1508C118.039 12.6731 117.333 12.2997 116.6 12.032C115.866 11.7644 115.205 11.5544 114.616 11.3973L110.314 10.1953C109.77 10.051 109.233 9.8699 108.705 9.65353C108.177 9.43715 107.735 9.14224 107.379 8.7688C107.024 8.39535 106.846 7.91452 106.846 7.3247C106.846 6.70122 107.054 6.15628 107.472 5.68988C107.888 5.22187 108.439 4.86445 109.123 4.61282C109.807 4.36278 110.548 4.24258 111.349 4.2538C112.17 4.27623 112.947 4.44292 113.676 4.75386C114.403 5.0648 115.021 5.51838 115.527 6.11461C116.033 6.70924 116.374 7.43048 116.552 8.27514L120.87 7.52345C120.515 6.04409 119.903 4.78111 119.037 3.7345C118.169 2.68949 117.091 1.88971 115.802 1.33996C114.508 0.791813 113.041 0.511328 111.397 0.500109C109.775 0.488889 108.298 0.745332 106.969 1.26784C105.64 1.79034 104.585 2.5773 103.802 3.62872C103.017 4.68013 102.626 5.97998 102.626 7.52505C102.626 8.58288 102.801 9.46921 103.152 10.1872C103.502 10.9053 103.952 11.4951 104.501 11.9567C105.052 12.4183 105.635 12.7805 106.253 13.0418C106.87 13.303 107.445 13.5114 107.98 13.6669L114.182 15.502C114.627 15.6351 115.017 15.7937 115.357 15.9781C115.695 16.1624 115.973 16.3643 116.19 16.5871C116.407 16.8099 116.571 17.0631 116.681 17.3468C116.792 17.6305 116.848 17.9398 116.848 18.2732C116.848 19.0185 116.611 19.6468 116.138 20.1597C115.666 20.671 115.051 21.0604 114.297 21.3281C113.541 21.5958 112.734 21.7288 111.879 21.7288C110.434 21.7288 109.158 21.3393 108.052 20.5604C106.945 19.7814 106.215 18.6803 105.859 17.2555L101.691 17.8902C101.936 19.4593 102.511 20.8136 103.417 21.9532C104.324 23.0944 105.48 23.9695 106.886 24.5817C108.292 25.194 109.874 25.5001 111.629 25.5001C112.864 25.5001 114.044 25.3446 115.173 25.0321C116.3 24.7212 117.304 24.2532 118.183 23.6297C119.061 23.0062 119.759 22.2256 120.276 21.2848C120.793 20.344 121.051 19.2509 121.051 18.0056C121.051 16.7602 120.832 15.8146 120.392 15.0356C119.953 14.2567 119.394 13.6284 118.717 13.1492V13.1508Z" fill="#25F56A"/>
<path d="M145.926 9.6631L150.053 3.71202L148.687 0.814209H132.451V22.123C132.451 23.7114 133.737 25 135.326 25H144.892C145.092 25 146.762 24.9712 148.463 24.0399C150.125 23.1296 152.108 21.2159 152.109 17.2634C152.109 16.4604 151.957 14.3945 150.543 12.5305C149.731 11.4614 148.32 10.2433 145.928 9.6631H145.926ZM136.033 4.40121H145.215L136.033 17.6449V4.40121ZM144.89 21.4146H137.782L143.661 12.9344C145.542 13.0626 146.895 13.6556 147.691 14.7022C148.468 15.7248 148.527 16.9204 148.527 17.2634C148.525 21.0572 145.734 21.4002 144.892 21.4162L144.89 21.4146Z" fill="#25F56A"/>
<path d="M157.938 19.7092V14.4361H167.397V10.6648H157.938V6.25876C157.938 5.41891 158.617 4.73933 159.456 4.73933H169.399V0.968018H158.393C155.922 0.968018 153.919 2.97308 153.919 5.44616V20.5234C153.919 22.9965 155.922 25.0015 158.393 25.0015H170.427V21.2302H159.456C158.617 21.2302 157.938 20.5507 157.938 19.7108V19.7092Z" fill="#25F56A"/>
<path d="M192 0.968018H172.441V4.73933H180.211V24.9999H184.23V4.73933H192V0.968018Z" fill="#25F56A"/>
</svg>
